<?xml version="1.0" standalone="no"?>
<!DOCTYPE svg PUBLIC "-//W3C//DTD SVG 20010904//EN"
 "http://www.w3.org/TR/2001/REC-SVG-20010904/DTD/svg10.dtd">
<svg version="1.0" xmlns="http://www.w3.org/2000/svg"
 width="133.000000pt" height="133.000000pt" viewBox="0 0 133.000000 133.000000"
 preserveAspectRatio="xMidYMid meet">
<metadata>
Created by potrace 1.11, written by Peter Selinger 2001-2013
</metadata>
<g transform="translate(0.000000,133.000000) scale(0.100000,-0.100000)"
fill="#000000" stroke="none">
<path d="M327 873 c-8 -16 -18 -38 -21 -50 l-7 -22 243 2 c234 2 243 3 246 22
2 11 7 24 12 28 4 5 54 -21 110 -58 116 -75 117 -63 -5 -130 -38 -21 -85 -47
-103 -57 -18 -10 -34 -18 -36 -18 -1 0 -1 14 2 30 3 24 1 30 -14 31 -11 0
-165 0 -343 1 -283 0 -325 -2 -339 -16 -19 -19 -23 -18 93 -20 l90 -1 0 -35
c0 -28 6 -38 30 -52 42 -24 85 -23 85 1 0 10 9 30 20 44 48 61 132 51 165 -20
l19 -43 218 0 c211 0 218 1 218 20 0 28 50 79 84 84 54 9 100 -24 120 -86 6
-21 51 -25 59 -5 7 19 1 79 -11 108 -13 31 -52 61 -117 89 -26 11 -74 46 -106
78 -108 104 -99 102 -420 102 l-278 0 -14 -27z"/>
<path d="M812 801 c3 -18 1 -28 -6 -24 -13 9 -138 8 -160 0 -9 -4 -15 -3 -12
1 2 4 -95 7 -216 6 -220 -1 -221 -1 -239 -25 -10 -13 -16 -25 -14 -27 1 -2
112 -3 246 -2 134 1 253 1 264 1 11 0 40 0 65 0 55 0 49 1 137 -2 40 -1 74 1
75 4 2 4 -30 27 -71 53 l-73 45 4 -30z"/>
<path d="M415 565 c-14 -13 -25 -36 -25 -50 0 -32 41 -75 72 -75 30 0 67 26
77 54 27 72 -69 127 -124 71z m84 -34 c16 -28 -9 -56 -42 -47 -20 5 -27 13
-27 30 0 12 3 26 7 29 13 14 53 6 62 -12z"/>
<path d="M1073 578 c-27 -13 -43 -55 -32 -84 10 -28 47 -54 77 -54 31 0 72 43
72 75 0 14 -11 37 -25 50 -26 26 -56 31 -92 13z m66 -37 c23 -15 5 -61 -24
-61 -29 0 -47 27 -34 52 10 19 35 23 58 9z"/>
</g>
</svg>
